<?xml version="1.0" encoding="UTF-8" standalone="no"?>
<svg width="24" height="24" viewBox="0 0 130.49561 130.4951" version="1.1" id="logo" xmlns="http://www.w3.org/2000/svg" xmlns:svg="http://www.w3.org/2000/svg">
<path id="sw" style="fill:#6ba53a" d="m 8.568212,33.26656 c 0,0 11.165938,4.173711 19.780772,17.487819 12.333016,19.06051 2.608186,48.59832 14.359905,64.972781 9.158874,12.76167 26.429371,14.58619 26.429371,14.58619 0,0 -38.550569,3.89469 -59.468824,-31.492431 C -11.248814,63.433799 8.568212,33.26656 8.568212,33.26656 Z" />
<path id="se" style="fill:#7adfa9" d="m 65.657955,130.54204 c 0,0 -1.862519,-11.77409 5.487215,-25.82622 10.52188,-20.117061 41.02069,-26.189721 49.4905,-44.478741 6.60107,-14.253809 -0.31097,-30.185617 -0.31097,-30.185617 0,0 22.36428,31.641017 1.85573,67.267157 C 101.6719,132.94474 65.657955,130.54204 65.657955,130.54204 Z" />
<path id="n" style="fill:#236093" d="M 64.59646,0.070543 C 29.648494,0.192526 12.843792,25.639334 8.563067,33.271453 l 0.442489,0.191156 c 3.469022,-3.884884 12.283013,-12.334996 24.294471,-13.444617 20.069567,-1.85403 40.627283,21.478679 63.307933,20.481977 15.84284,-0.696213 25.09449,-8.216154 25.09449,-8.216154 0,0 -15.99885,-32.356751 -57.10599,-32.213272 z" />
</svg>
